<?xml version="1.0" encoding="UTF-8" standalone="no"?>
<!-- Created with Inkscape (http://www.inkscape.org/) -->

<svg
   xmlns:dc="http://purl.org/dc/elements/1.1/"
   xmlns:cc="http://creativecommons.org/ns#"
   xmlns:rdf="http://www.w3.org/1999/02/22-rdf-syntax-ns#"
   xmlns:svg="http://www.w3.org/2000/svg"
   xmlns="http://www.w3.org/2000/svg"
   xmlns:sodipodi="http://sodipodi.sourceforge.net/DTD/sodipodi-0.dtd"
   xmlns:inkscape="http://www.inkscape.org/namespaces/inkscape"
   width="10in"
   height="4in"
   viewBox="0 0 254 101.6"
   version="1.1"
   id="svg907"
   inkscape:version="0.92.4 (5da689c313, 2019-01-14)"
   sodipodi:docname="full white logo.svg"
   inkscape:export-filename="C:\Users\helen\Documents\UAlberta\VGC Design\full white logo no 3d.png"
   inkscape:export-xdpi="96"
   inkscape:export-ydpi="96">
  <defs
     id="defs901" />
  <sodipodi:namedview
     id="base"
     pagecolor="#ffffff"
     bordercolor="#666666"
     borderopacity="1.0"
     inkscape:pageopacity="0.0"
     inkscape:pageshadow="2"
     inkscape:zoom="0.98994949"
     inkscape:cx="434.23734"
     inkscape:cy="301.63163"
     inkscape:document-units="mm"
     inkscape:current-layer="layer1"
     showgrid="false"
     units="in"
     inkscape:pagecheckerboard="true"
     inkscape:window-width="1920"
     inkscape:window-height="1001"
     inkscape:window-x="-9"
     inkscape:window-y="-9"
     inkscape:window-maximized="1"
     width="10in" />
  <metadata
     id="metadata904">
    <rdf:RDF>
      <cc:Work
         rdf:about="">
        <dc:format>image/svg+xml</dc:format>
        <dc:type
           rdf:resource="http://purl.org/dc/dcmitype/StillImage" />
        <dc:title></dc:title>
      </cc:Work>
    </rdf:RDF>
  </metadata>
  <g
     inkscape:label="Layer 1"
     inkscape:groupmode="layer"
     id="layer1"
     transform="translate(0,-195.39998)">
    <g
       transform="matrix(1.4295468,0,0,1.4295468,-24.870645,163.66439)"
       id="g874">
      <g
         transform="matrix(0.18139296,0,0,0.18139296,86.375738,40.20706)"
         id="g4621"
         style="opacity:1">
        <path
           inkscape:connector-curvature="0"
           id="path4616-9"
           d="m -201.76648,-66.663114 c -31.90515,0.02561 -53.89341,24.157513 -57.59597,49.005277 -0.0979,0.638902 -0.14456,1.280193 -0.22117,1.920296 h -11.1125 c -0.25318,2.115477 -0.41632,4.23392 -0.43926,6.3500004 h 37.57084 c -0.0192,1.7695062 0.044,3.5340781 0.18345,5.2916665 h -26.45833 c 0.43306,5.458103 1.62072,10.8297556 3.54035,15.9504471 h -29.63334 c 1.38112,3.684129 3.16034,7.223636 5.28185,10.583333 h 29.63334 c 4.94587,7.832385 11.83691,14.630742 20.58686,19.565213 l -5.25395,23.977865 h -6.87916 l -7.28845,33.262052 h 6.87917 l -10.37249,47.338714 -14.55002,5.3e-4 c -2.09884,-0.0339 -4.45924,1.32584 -5.03328,4.03231 l -4.00595,18.78386 h -10.61021 v -0.30282 h -4.7625 v -6.80269 c -0.007,-0.26724 -0.0423,-0.52431 -0.10232,-0.76894 -0.06,-0.24463 -0.14451,-0.47679 -0.25114,-0.69557 -0.10668,-0.21877 -0.23508,-0.42374 -0.3819,-0.6134 -0.14684,-0.18966 -0.31245,-0.36409 -0.493,-0.52141 -0.18055,-0.15731 -0.37613,-0.29788 -0.58393,-0.41961 -0.1669,-0.0978 -0.3464,-0.1741 -0.52711,-0.24702 h -16.01142 c -2.05052,-0.0119 -3.8395,1.54581 -3.85299,3.61012 v 6.76134 h -14.51954 c -2.23488,0.0132 -4.49268,1.22963 -6.00842,5.85546 l -7.70496,27.3327 h -15.32721 c -3.77695,0.0254 -6.20387,3.12684 -6.22236,6.08025 l -0.003,31.4911 c 0.16418,2.77516 1.95445,4.93884 4.37544,5.68699 h 229.40771 c 0.37999,0.004 0.75997,-0.0298 1.1343,-0.0987 0.37431,-0.0689 0.74287,-0.17314 1.10019,-0.31058 0.35732,-0.13743 0.70347,-0.30818 1.03249,-0.51005 0.32901,-0.20185 0.64078,-0.43492 0.93018,-0.69711 0.28943,-0.26219 0.55629,-0.55335 0.79478,-0.87178 0.2385,-0.31842 0.44848,-0.66399 0.62477,-1.03456 0.17627,-0.37057 0.31894,-0.76632 0.42168,-1.18494 0.10273,-0.41861 0.16556,-0.85984 0.18345,-1.3224 0.0215,-4.46934 0.007,-16.64085 0.007,-16.64085 l -0.005,-14.74794 c 0.003,-0.36222 -0.0315,-0.72798 -0.10025,-1.09088 -0.0688,-0.3629 -0.17228,-0.72284 -0.30902,-1.07384 -0.13671,-0.35099 -0.30636,-0.69308 -0.50746,-1.01958 -0.20109,-0.3265 -0.43364,-0.63766 -0.69557,-0.92707 -0.26193,-0.28941 -0.55311,-0.55711 -0.8723,-0.79685 -0.3192,-0.23973 -0.66627,-0.45144 -1.03921,-0.6289 -0.26501,-0.12613 -0.55842,-0.21153 -0.84904,-0.30076 h -11.00657 l -0.10128,-0.30179 h -4.66173 l -9.11159,-27.19783 c -0.1895,-0.55628 -0.38857,-1.06881 -0.59738,-1.53944 -0.20884,-0.47063 -0.42713,-0.89865 -0.65423,-1.28777 -0.22706,-0.38913 -0.4632,-0.73931 -0.70745,-1.0511 -0.24425,-0.31178 -0.49668,-0.58562 -0.75706,-0.82424 -0.26035,-0.23861 -0.5287,-0.44172 -0.80408,-0.61133 -0.25286,-0.15574 -0.51307,-0.2763 -0.77773,-0.37724 l -48.88797,-0.002 -0.0672,-0.3023 h -4.69584 l -4.10414,-18.42524 c -0.0776,-0.29247 -0.18046,-0.5809 -0.30593,-0.86144 -0.12547,-0.28054 -0.27355,-0.55345 -0.4408,-0.81494 -0.16725,-0.26148 -0.35359,-0.51144 -0.55655,-0.74672 -0.20296,-0.23529 -0.42265,-0.45587 -0.65526,-0.65784 -0.2326,-0.20197 -0.47813,-0.38522 -0.73432,-0.54674 -0.25619,-0.16151 -0.52262,-0.30103 -0.79633,-0.41496 -0.0488,-0.0203 -0.10063,-0.0278 -0.14987,-0.0465 l -8.44289,-0.002 0.0662,-0.30179 -4.82865,-10e-4 10.30324,-47.031234 h -6.87916 l 7.28689,-33.262053 h 6.87917 l 3.72897,-17.019116 c 1.02202,0.07853 2.04088,0.12954 3.05614,0.153479 1.01526,0.02394 2.02707,0.02125 3.03393,-0.0083 1.00687,-0.02947 2.00918,-0.08574 3.00601,-0.167431 0.99688,-0.08169 1.98824,-0.189201 2.97347,-0.321945 0.98523,-0.132747 1.96428,-0.29074 2.93625,-0.473355 0.97198,-0.182613 1.93678,-0.389851 2.89388,-0.621152 0.95708,-0.231304 1.90626,-0.486516 2.84686,-0.765326 0.94056,-0.27881 1.87222,-0.58075 2.79466,-0.905888 0.92247,-0.325139 1.83562,-0.673576 2.73833,-1.043863 0.90271,-0.370287 1.79501,-0.762418 2.67633,-1.176674 0.88132,-0.414255 1.75184,-0.850373 2.61017,-1.307415 0.85834,-0.457043 1.70462,-0.935368 2.53835,-1.43402 0.8337,-0.49865 1.6549,-1.017932 2.46238,-1.557009 0.80748,-0.539078 1.60111,-1.098058 2.38073,-1.676385 0.77959,-0.578326 1.54483,-1.175744 2.29495,-1.792139 0.75012,-0.616392 1.48551,-1.251516 2.20452,-1.904793 0.71901,-0.653281 1.42161,-1.324843 2.10788,-2.013832 0.68628,-0.688985 1.35625,-1.395219 2.00815,-2.118733 0.6519,-0.723511 1.28574,-1.464193 1.90169,-2.221052 0.61592,-0.756859 1.21382,-1.530213 1.79214,-2.319238 0.57833,-0.789026 1.13729,-1.593794 1.67638,-2.413806 0.0936,-0.142432 0.17784,-0.291785 0.27027,-0.435116 h -29.63333 c 0.43972,-0.681861 0.8745,-1.367431 1.28622,-2.069641 0.49823,-0.849819 0.97567,-1.714678 1.43144,-2.593123 0.45577,-0.878445 0.89007,-1.770948 1.30173,-2.67684 0.41167,-0.905891 0.80039,-1.82478 1.16634,-2.756937 0.0628,-0.160067 0.11474,-0.325968 0.17621,-0.486792 h 29.63334 c 0.29649,-0.775742 0.58723,-1.554792 0.85111,-2.3476597 0.31861,-0.9572428 0.61354,-1.9266857 0.88315,-2.9078334 0.26964,-0.9811477 0.51424,-1.9742393 0.73329,-2.9781127 0.21905,-1.003873 0.41245,-2.0188402 0.57929,-3.04425857 0.16682,-1.02541829 0.30713,-2.06100383 0.42013,-3.10678703 0.0559,-0.5170926 0.0843,-1.0438636 0.12661,-1.565796 h 26.45833 c 0.0433,-0.5336389 0.1001,-1.0625463 0.12919,-1.6009358 0.0575,-1.0649675 0.0869,-2.1390525 0.0873,-3.2220257 10e-4,-0.1568857 -0.009,-0.3120187 -0.009,-0.4687047 h -5.3e-4 -37.57083 c -0.002,-0.8065724 -0.0108,-1.6121024 -0.047,-2.4127734 -0.0433,-0.956211 -0.1109,-1.908069 -0.20205,-2.854606 -0.0349,-0.362978 -0.0898,-0.721256 -0.13178,-1.082621 h 11.1125 c -0.0674,-0.580965 -0.12735,-1.16373 -0.21239,-1.740462 -0.13793,-0.935463 -0.29852,-1.864951 -0.48214,-2.787944 -0.18362,-0.922993 -0.38982,-1.839545 -0.61805,-2.748669 -0.22826,-0.909125 -0.47856,-1.810888 -0.75034,-2.704745 -0.27181,-0.893858 -0.56528,-1.780008 -0.87953,-2.657202 -0.31424,-0.877191 -0.64948,-1.745361 -1.00511,-2.604492 -0.35562,-0.859128 -0.73163,-1.709012 -1.12758,-2.548681 -0.39595,-0.839668 -0.81179,-1.66941 -1.24695,-2.488221 -0.43517,-0.818809 -0.88991,-1.626555 -1.36323,-2.423107 -0.47334,-0.796552 -0.96546,-1.581997 -1.47587,-2.354895 -1.0208,-1.545796 -2.11421,-3.042724 -3.27681,-4.485515 -1.16263,-1.442789 -2.39439,-2.831357 -3.69021,-4.159951 -0.64792,-0.6643 -1.31203,-1.313514 -1.99161,-1.94717 -0.67961,-0.633653 -1.37443,-1.251505 -2.08463,-1.853118 -0.71022,-0.601609 -1.43532,-1.186759 -2.17506,-1.754931 -0.73973,-0.568168 -1.49422,-1.11928 -2.26239,-1.652611 -0.76819,-0.533331 -1.55005,-1.049065 -2.3456,-1.546159 -0.79552,-0.497094 -1.6049,-0.975595 -2.42672,-1.435055 -0.82185,-0.459459 -1.65614,-0.899908 -2.50321,-1.320331 -0.84703,-0.420429 -1.70643,-0.820968 -2.57762,-1.200963 -0.87117,-0.379997 -1.75418,-0.739285 -2.64842,-1.077452 -0.89427,-0.338166 -1.79989,-0.655388 -2.71611,-0.95033 -0.91623,-0.294939 -1.84306,-0.567724 -2.78019,-0.818039 -0.93713,-0.250317 -1.88474,-0.477835 -2.84169,-0.682127 -0.95694,-0.204293 -1.92337,-0.385215 -2.89905,-0.542087 -0.97571,-0.156871 -1.96047,-0.289856 -2.95382,-0.397909 -0.0154,-0.0016 -0.0311,-0.0021 -0.0465,-0.0036 -0.41709,-0.01127 -0.82991,-0.03724 -1.24954,-0.03979 z"
           style="display:inline;opacity:1;fill:#ff00cc;fill-opacity:1;stroke:none;stroke-width:0.11002731;stroke-linecap:butt;stroke-linejoin:miter;stroke-miterlimit:4;stroke-dasharray:none;stroke-opacity:1" />
        <path
           inkscape:connector-curvature="0"
           id="path4614-9"
           d="m -207.05817,-63.488112 c -31.90515,0.02561 -53.89341,24.157513 -57.59597,49.005277 -0.0979,0.638902 -0.14457,1.280193 -0.22118,1.920296 h -11.11249 c -0.25318,2.115477 -0.41632,4.2339188 -0.43926,6.3499985 h 37.57084 c -0.0192,1.7695063 0.044,3.5340782 0.18345,5.29166657 h -26.45833 c 0.43306,5.45810303 1.62072,10.82975523 3.54035,15.95044893 h -29.63335 c 1.38113,3.684129 3.16035,7.223636 5.28185,10.583333 h 29.63335 c 4.94587,7.832385 11.83691,14.630742 20.58685,19.565213 l -5.25394,23.977865 h -6.87917 l -7.28844,33.262064 h 6.87917 l -10.3725,47.33872 -14.55002,5.3e-4 c -2.09883,-0.0339 -4.45923,1.32584 -5.03327,4.03231 l -4.00595,18.78386 h -10.61022 v -0.30282 h -4.7625 v -6.80269 c -0.007,-0.26724 -0.0423,-0.52431 -0.10231,-0.76894 -0.06,-0.24463 -0.14452,-0.47679 -0.25114,-0.69557 -0.10668,-0.21877 -0.23509,-0.42374 -0.3819,-0.6134 -0.14685,-0.18966 -0.31245,-0.36409 -0.493,-0.52141 -0.18055,-0.15731 -0.37613,-0.29788 -0.58394,-0.41961 -0.1669,-0.0978 -0.34639,-0.1741 -0.5271,-0.24702 h -16.01142 c -2.05052,-0.0119 -3.8395,1.54581 -3.85299,3.61012 v 6.76134 h -14.51954 c -2.23489,0.0132 -4.49268,1.22963 -6.00843,5.85546 l -7.70495,27.3327 h -15.32721 c -3.77695,0.0254 -6.20387,3.12684 -6.22237,6.08025 l -0.003,31.4911 c 0.16417,2.77516 1.95445,4.93884 4.37544,5.68699 h 229.40771 c 0.37999,0.004 0.75996,-0.0298 1.13429,-0.0987 0.37431,-0.0689 0.74287,-0.17314 1.10019,-0.31058 0.35732,-0.13743 0.70348,-0.30818 1.0325,-0.51005 0.32901,-0.20185 0.64078,-0.43492 0.93018,-0.69711 0.28943,-0.26219 0.55629,-0.55335 0.79478,-0.87178 0.2385,-0.31842 0.44847,-0.66399 0.62477,-1.03456 0.17626,-0.37057 0.31894,-0.76632 0.42168,-1.18494 0.10273,-0.41861 0.16556,-0.85984 0.18345,-1.3224 0.0215,-4.46934 0.007,-16.64085 0.007,-16.64085 l -0.005,-14.74794 c 0.003,-0.36222 -0.0315,-0.72798 -0.10025,-1.09088 -0.0688,-0.3629 -0.17228,-0.72284 -0.30903,-1.07384 -0.13671,-0.35099 -0.30635,-0.69308 -0.50746,-1.01958 -0.20109,-0.3265 -0.43363,-0.63766 -0.69556,-0.92707 -0.26193,-0.28941 -0.55311,-0.55711 -0.8723,-0.79685 -0.3192,-0.23973 -0.66627,-0.45144 -1.03922,-0.6289 -0.265,-0.12613 -0.55842,-0.21153 -0.84904,-0.30076 h -11.00656 l -0.10129,-0.30179 h -4.66173 l -9.11159,-27.19783 c -0.1895,-0.55628 -0.38857,-1.06881 -0.59737,-1.53944 -0.20885,-0.47063 -0.42714,-0.89865 -0.65423,-1.28777 -0.22707,-0.38913 -0.46321,-0.73931 -0.70745,-1.0511 -0.24426,-0.31178 -0.49668,-0.58562 -0.75706,-0.82424 -0.26035,-0.23861 -0.5287,-0.44172 -0.80408,-0.61133 -0.25286,-0.15574 -0.51307,-0.2763 -0.77773,-0.37724 l -48.88798,-0.002 -0.0672,-0.3023 h -4.69583 l -4.10414,-18.42524 c -0.0776,-0.29247 -0.18046,-0.5809 -0.30593,-0.86144 -0.12548,-0.28054 -0.27355,-0.55345 -0.4408,-0.81494 -0.16725,-0.26148 -0.35359,-0.51144 -0.55655,-0.74672 -0.20296,-0.23529 -0.42265,-0.45587 -0.65526,-0.65784 -0.2326,-0.20197 -0.47814,-0.38522 -0.73433,-0.54674 -0.25619,-0.16151 -0.52262,-0.30103 -0.79633,-0.41496 -0.0488,-0.0203 -0.10062,-0.0278 -0.14986,-0.0465 l -8.44289,-0.002 0.0661,-0.30179 -4.82864,-0.001 10.30324,-47.03124 h -6.87917 l 7.2869,-33.262065 h 6.87917 l 3.72897,-17.019116 c 1.02202,0.07853 2.04088,0.12954 3.05614,0.153479 1.01526,0.02394 2.02707,0.02125 3.03392,-0.0083 1.00687,-0.02947 2.00918,-0.08574 3.00602,-0.167431 0.99687,-0.08169 1.98823,-0.189201 2.97346,-0.321945 0.98523,-0.132747 1.96429,-0.29074 2.93626,-0.473355 0.97198,-0.182613 1.93678,-0.389851 2.89388,-0.621152 0.95708,-0.231304 1.90625,-0.486516 2.84685,-0.765326 0.94056,-0.27881 1.87223,-0.58075 2.79467,-0.905888 0.92247,-0.325139 1.83562,-0.673576 2.73833,-1.043863 0.90271,-0.370287 1.795,-0.762418 2.67632,-1.176674 0.88133,-0.414255 1.75185,-0.850373 2.61018,-1.307415 0.85834,-0.457043 1.70461,-0.935368 2.53834,-1.43402 0.83371,-0.49865 1.65491,-1.017932 2.46239,-1.557009 0.80748,-0.539078 1.60111,-1.098058 2.38073,-1.676385 0.77959,-0.578326 1.54483,-1.175744 2.29495,-1.792139 0.75012,-0.616392 1.48551,-1.251516 2.20452,-1.904793 0.71901,-0.653281 1.42161,-1.324843 2.10788,-2.013832 0.68628,-0.688985 1.35625,-1.395219 2.00814,-2.118733 0.65191,-0.723511 1.28575,-1.464193 1.9017,-2.221052 0.61592,-0.756859 1.21382,-1.530213 1.79214,-2.319238 0.57832,-0.789026 1.13729,-1.593794 1.67638,-2.413806 0.0936,-0.142432 0.17784,-0.291785 0.27027,-0.435116 h -29.63334 c 0.43973,-0.681861 0.87451,-1.367431 1.28623,-2.069641 0.49823,-0.849819 0.97567,-1.714678 1.43144,-2.593123 0.45577,-0.878445 0.89007,-1.770948 1.30173,-2.67684 0.41167,-0.905891 0.80038,-1.82478 1.16633,-2.756937 0.0628,-0.160067 0.11475,-0.325968 0.17622,-0.486792 h 29.63333 c 0.2965,-0.775742 0.58724,-1.554792 0.85111,-2.34766 0.31861,-0.957243 0.61355,-1.926687 0.88315,-2.9078347 0.26965,-0.9811479 0.51424,-1.9742395 0.73329,-2.9781129 0.21905,-1.003873 0.41245,-2.0188402 0.5793,-3.0442586 0.16682,-1.0254184 0.30713,-2.0610039 0.42012,-3.10678717 0.0559,-0.51709252 0.0843,-1.04386349 0.12661,-1.56579586 h 26.45834 c 0.0433,-0.53363887 0.1001,-1.06254627 0.12919,-1.60093577 0.0575,-1.0649675 0.0869,-2.1390525 0.0873,-3.2220254 0.001,-0.1568863 -0.009,-0.3120194 -0.009,-0.4687054 h -5.3e-4 -37.57084 c -0.002,-0.8065725 -0.0108,-1.6121017 -0.047,-2.4127721 -0.0433,-0.9562104 -0.11091,-1.9080681 -0.20206,-2.8546051 -0.0349,-0.362978 -0.0898,-0.721256 -0.13177,-1.082621 h 11.1125 c -0.0674,-0.580965 -0.12735,-1.16373 -0.21239,-1.740462 -0.13793,-0.935463 -0.29852,-1.864951 -0.48214,-2.787944 -0.18362,-0.922993 -0.38982,-1.839545 -0.61805,-2.748669 -0.22826,-0.909125 -0.47856,-1.810888 -0.75034,-2.704745 -0.27181,-0.893858 -0.56529,-1.780008 -0.87954,-2.657202 -0.31424,-0.877191 -0.64947,-1.745361 -1.0051,-2.604492 -0.35562,-0.859128 -0.73163,-1.709012 -1.12758,-2.548681 -0.39595,-0.839668 -0.81179,-1.66941 -1.24695,-2.488221 -0.43518,-0.818809 -0.88991,-1.626555 -1.36323,-2.423107 -0.47334,-0.796552 -0.96547,-1.581997 -1.47588,-2.354895 -1.02079,-1.545796 -2.1142,-3.042724 -3.2768,-4.485515 -1.16263,-1.442789 -2.3944,-2.831357 -3.69021,-4.159951 -0.64793,-0.6643 -1.31204,-1.313514 -1.99162,-1.94717 -0.6796,-0.633653 -1.37442,-1.251505 -2.08462,-1.853118 -0.71022,-0.601609 -1.43532,-1.186759 -2.17506,-1.754931 -0.73973,-0.568168 -1.49423,-1.11928 -2.2624,-1.652611 -0.76819,-0.533331 -1.55004,-1.049065 -2.34559,-1.546159 -0.79552,-0.497094 -1.60491,-0.975595 -2.42673,-1.435055 -0.82185,-0.459459 -1.65613,-0.899908 -2.5032,-1.320331 -0.84703,-0.420429 -1.70643,-0.820968 -2.57762,-1.200963 -0.87117,-0.379997 -1.75418,-0.739285 -2.64842,-1.077452 -0.89427,-0.338166 -1.79989,-0.655388 -2.71611,-0.95033 -0.91623,-0.294939 -1.84307,-0.567724 -2.7802,-0.818039 -0.93712,-0.250317 -1.88473,-0.477835 -2.84168,-0.682127 -0.95694,-0.204293 -1.92337,-0.385215 -2.89905,-0.542087 -0.97571,-0.156871 -1.96047,-0.289856 -2.95382,-0.397909 -0.0154,-0.0016 -0.0311,-0.0021 -0.0465,-0.0036 -0.41709,-0.01127 -0.82991,-0.03724 -1.24954,-0.03979 z"
           style="display:inline;opacity:1;fill:#00ffff;fill-opacity:1;stroke:none;stroke-width:0.11002731;stroke-linecap:butt;stroke-linejoin:miter;stroke-miterlimit:4;stroke-dasharray:none;stroke-opacity:1" />
        <path
           style="display:inline;opacity:1;fill:#ffffff;fill-opacity:1;stroke:none;stroke-width:0.11002731;stroke-linecap:butt;stroke-linejoin:miter;stroke-miterlimit:4;stroke-dasharray:none;stroke-opacity:1"
           d="m -204.41233,-65.60478 c -31.90515,0.02561 -53.89341,24.157513 -57.59597,49.005277 -0.0979,0.638902 -0.14456,1.280193 -0.22117,1.920296 h -11.1125 c -0.25318,2.115477 -0.41632,4.23392 -0.43926,6.3499997 h 37.57084 c -0.0192,1.7695063 0.044,3.5340782 0.18345,5.2916666 h -26.45833 c 0.43306,5.458103 1.62072,10.8297556 3.54035,15.9504477 h -29.63334 c 1.38112,3.684129 3.16034,7.223636 5.28185,10.583333 h 29.63334 c 4.94587,7.832385 11.83691,14.630742 20.58686,19.565213 l -5.25395,23.977865 h -6.87916 l -7.28845,33.262052 h 6.87917 l -10.37249,47.33872 -14.55002,5.3e-4 c -2.09884,-0.0339 -4.45924,1.32584 -5.03328,4.03231 l -4.00595,18.78386 h -10.61021 v -0.30282 h -4.7625 v -6.80269 c -0.007,-0.26724 -0.0423,-0.52431 -0.10232,-0.76894 -0.06,-0.24463 -0.14451,-0.47679 -0.25114,-0.69557 -0.10668,-0.21877 -0.23508,-0.42374 -0.3819,-0.6134 -0.14684,-0.18966 -0.31245,-0.36409 -0.493,-0.52141 -0.18055,-0.15731 -0.37613,-0.29788 -0.58393,-0.41961 -0.1669,-0.0978 -0.3464,-0.1741 -0.52711,-0.24702 h -16.01142 c -2.05052,-0.0119 -3.8395,1.54581 -3.85299,3.61012 v 6.76134 h -14.51954 c -2.23488,0.0132 -4.49268,1.22963 -6.00842,5.85546 l -7.70496,27.3327 h -15.32721 c -3.77695,0.0254 -6.20387,3.12684 -6.22236,6.08025 l -0.003,31.4911 c 0.16418,2.77516 1.95445,4.93884 4.37544,5.68699 h 229.40771 c 0.37999,0.004 0.75997,-0.0298 1.1343,-0.0987 0.37431,-0.0689 0.74287,-0.17314 1.10019,-0.31058 0.35732,-0.13743 0.70347,-0.30818 1.03249,-0.51005 0.32901,-0.20185 0.64078,-0.43492 0.93018,-0.69711 0.28943,-0.26219 0.55629,-0.55335 0.79478,-0.87178 0.2385,-0.31842 0.44848,-0.66399 0.62477,-1.03456 0.17627,-0.37057 0.31894,-0.76632 0.42168,-1.18494 0.10273,-0.41861 0.16556,-0.85984 0.18345,-1.3224 0.0215,-4.46934 0.007,-16.64085 0.007,-16.64085 l -0.005,-14.74794 c 0.003,-0.36222 -0.0315,-0.72798 -0.10025,-1.09088 -0.0688,-0.3629 -0.17228,-0.72284 -0.30902,-1.07384 -0.13671,-0.35099 -0.30636,-0.69308 -0.50746,-1.01958 -0.20109,-0.3265 -0.43364,-0.63766 -0.69557,-0.92707 -0.26193,-0.28941 -0.55311,-0.55711 -0.8723,-0.79685 -0.3192,-0.23973 -0.66627,-0.45144 -1.03921,-0.6289 -0.26501,-0.12613 -0.55842,-0.21153 -0.84904,-0.30076 h -11.00657 l -0.10128,-0.30179 h -4.66173 l -9.11159,-27.19783 c -0.1895,-0.55628 -0.38857,-1.06881 -0.59738,-1.53944 -0.20884,-0.47063 -0.42713,-0.89865 -0.65423,-1.28777 -0.22706,-0.38913 -0.4632,-0.73931 -0.70745,-1.0511 -0.24425,-0.31178 -0.49668,-0.58562 -0.75706,-0.82424 -0.26035,-0.23861 -0.5287,-0.44172 -0.80408,-0.61133 -0.25286,-0.15574 -0.51307,-0.2763 -0.77773,-0.37724 l -48.88797,-0.002 -0.0672,-0.3023 h -4.69584 l -4.10414,-18.42524 c -0.0776,-0.29247 -0.18046,-0.5809 -0.30593,-0.86144 -0.12547,-0.28054 -0.27355,-0.55345 -0.4408,-0.81494 -0.16725,-0.26148 -0.35359,-0.51144 -0.55655,-0.74672 -0.20296,-0.23529 -0.42265,-0.45587 -0.65526,-0.65784 -0.2326,-0.20197 -0.47813,-0.38522 -0.73432,-0.54674 -0.25619,-0.16151 -0.52262,-0.30103 -0.79633,-0.41496 -0.0488,-0.0203 -0.10063,-0.0278 -0.14987,-0.0465 l -8.44289,-0.002 0.0662,-0.30179 -4.82865,-0.001 10.30324,-47.03124 h -6.87916 l 7.28689,-33.262053 h 6.87917 l 3.72897,-17.019116 c 1.02202,0.07853 2.04088,0.12954 3.05614,0.153479 1.01526,0.02394 2.02707,0.02125 3.03393,-0.0083 1.00687,-0.02947 2.00918,-0.08574 3.00601,-0.167431 0.99688,-0.08169 1.98824,-0.189201 2.97347,-0.321945 0.98523,-0.132747 1.96428,-0.29074 2.93625,-0.473355 0.97198,-0.182613 1.93678,-0.389851 2.89388,-0.621152 0.95708,-0.231304 1.90626,-0.486516 2.84686,-0.765326 0.94056,-0.27881 1.87222,-0.58075 2.79466,-0.905888 0.92247,-0.325139 1.83562,-0.673576 2.73833,-1.043863 0.90271,-0.370287 1.79501,-0.762418 2.67633,-1.176674 0.88132,-0.414255 1.75184,-0.850373 2.61017,-1.307415 0.85834,-0.457043 1.70462,-0.935368 2.53835,-1.43402 0.8337,-0.49865 1.6549,-1.017932 2.46238,-1.557009 0.80748,-0.539078 1.60111,-1.098058 2.38073,-1.676385 0.77959,-0.578326 1.54483,-1.175744 2.29495,-1.792139 0.75012,-0.616392 1.48551,-1.251516 2.20452,-1.904793 0.71901,-0.653281 1.42161,-1.324843 2.10788,-2.013832 0.68628,-0.688985 1.35625,-1.395219 2.00815,-2.118733 0.6519,-0.723511 1.28574,-1.464193 1.90169,-2.221052 0.61592,-0.756859 1.21382,-1.530213 1.79214,-2.319238 0.57833,-0.789026 1.13729,-1.593794 1.67638,-2.413806 0.0936,-0.142432 0.17784,-0.291785 0.27027,-0.435116 h -29.63333 c 0.43972,-0.681861 0.8745,-1.367431 1.28622,-2.069641 0.49823,-0.849819 0.97567,-1.714678 1.43144,-2.593123 0.45577,-0.878445 0.89007,-1.770948 1.30173,-2.67684 0.41167,-0.905891 0.80039,-1.82478 1.16634,-2.756937 0.0628,-0.160067 0.11474,-0.325968 0.17621,-0.486792 h 29.63334 c 0.29649,-0.775742 0.58723,-1.554792 0.85111,-2.34766 0.31861,-0.9572427 0.61354,-1.926686 0.88315,-2.9078337 0.26964,-0.9811477 0.51424,-1.9742393 0.73329,-2.9781127 0.21905,-1.003873 0.41245,-2.0188402 0.57929,-3.0442586 0.16682,-1.02541837 0.30713,-2.06100384 0.42013,-3.106787 0.0559,-0.5170926 0.0843,-1.0438636 0.12661,-1.565796 h 26.45833 c 0.0433,-0.5336389 0.1001,-1.0625463 0.12919,-1.6009358 0.0575,-1.0649675 0.0869,-2.1390525 0.0873,-3.2220254 0.001,-0.1568863 -0.009,-0.3120194 -0.009,-0.4687054 h -5.3e-4 -37.57083 c -0.002,-0.8065725 -0.0108,-1.6121017 -0.047,-2.4127724 -0.0433,-0.956211 -0.1109,-1.908069 -0.20205,-2.854606 -0.0349,-0.362978 -0.0898,-0.721256 -0.13178,-1.082621 h 11.1125 c -0.0674,-0.580965 -0.12735,-1.16373 -0.21239,-1.740462 -0.13793,-0.935463 -0.29852,-1.864951 -0.48214,-2.787944 -0.18362,-0.922993 -0.38982,-1.839545 -0.61805,-2.748669 -0.22826,-0.909125 -0.47856,-1.810888 -0.75034,-2.704745 -0.27181,-0.893858 -0.56528,-1.780008 -0.87953,-2.657202 -0.31424,-0.877191 -0.64948,-1.745361 -1.00511,-2.604492 -0.35562,-0.859128 -0.73163,-1.709012 -1.12758,-2.548681 -0.39595,-0.839668 -0.81179,-1.66941 -1.24695,-2.488221 -0.43517,-0.818809 -0.88991,-1.626555 -1.36323,-2.423107 -0.47334,-0.796552 -0.96546,-1.581997 -1.47587,-2.354895 -1.0208,-1.545796 -2.11421,-3.042724 -3.27681,-4.485515 -1.16263,-1.442789 -2.39439,-2.831357 -3.69021,-4.159951 -0.64792,-0.6643 -1.31203,-1.313514 -1.99161,-1.94717 -0.67961,-0.633653 -1.37443,-1.251505 -2.08463,-1.853118 -0.71022,-0.601609 -1.43532,-1.186759 -2.17506,-1.754931 -0.73973,-0.568168 -1.49422,-1.11928 -2.26239,-1.652611 -0.76819,-0.533331 -1.55005,-1.049065 -2.3456,-1.546159 -0.79552,-0.497094 -1.6049,-0.975595 -2.42672,-1.435055 -0.82185,-0.459459 -1.65614,-0.899908 -2.50321,-1.320331 -0.84703,-0.420429 -1.70643,-0.820968 -2.57762,-1.200963 -0.87117,-0.379997 -1.75418,-0.739285 -2.64842,-1.077452 -0.89427,-0.338166 -1.79989,-0.655388 -2.71611,-0.95033 -0.91623,-0.294939 -1.84306,-0.567724 -2.78019,-0.818039 -0.93713,-0.250317 -1.88474,-0.477835 -2.84169,-0.682127 -0.95694,-0.204293 -1.92337,-0.385215 -2.89905,-0.542087 -0.97571,-0.156871 -1.96047,-0.289856 -2.95382,-0.397909 -0.0154,-0.0016 -0.0311,-0.0021 -0.0465,-0.0036 -0.41709,-0.01127 -0.82991,-0.03724 -1.24954,-0.03979 z"
           id="path4610-1"
           inkscape:connector-curvature="0" />
      </g>
      <text
         xml:space="preserve"
         style="font-style:normal;font-variant:normal;font-weight:normal;font-stretch:normal;font-size:19.47846031px;line-height:1;font-family:'8BIT WONDER';-inkscape-font-specification:'8BIT WONDER, Normal';font-variant-ligatures:normal;font-variant-caps:normal;font-variant-numeric:normal;font-feature-settings:normal;text-align:start;letter-spacing:0px;word-spacing:0px;writing-mode:lr-tb;text-anchor:start;opacity:1;fill:#ff00cc;fill-opacity:1;stroke:none;stroke-width:0.48391798"
         x="77.075287"
         y="44.887608"
         id="text5969-0"><tspan
           sodipodi:role="line"
           id="tspan5963-5"
           x="77.075287"
           y="44.887608"
           style="font-style:normal;font-variant:normal;font-weight:normal;font-stretch:normal;font-size:19.47846031px;line-height:1;font-family:'8BIT WONDER';-inkscape-font-specification:'8BIT WONDER, Normal';font-variant-ligatures:normal;font-variant-caps:normal;font-variant-numeric:normal;font-feature-settings:normal;text-align:start;writing-mode:lr-tb;text-anchor:start;fill:#ff00cc;fill-opacity:1;stroke-width:0.48391798">VIDEO</tspan><tspan
           sodipodi:role="line"
           x="77.075287"
           y="64.366066"
           style="font-style:normal;font-variant:normal;font-weight:normal;font-stretch:normal;font-size:19.47846031px;line-height:1;font-family:'8BIT WONDER';-inkscape-font-specification:'8BIT WONDER, Normal';font-variant-ligatures:normal;font-variant-caps:normal;font-variant-numeric:normal;font-feature-settings:normal;text-align:start;writing-mode:lr-tb;text-anchor:start;fill:#ff00cc;fill-opacity:1;stroke-width:0.48391798"
           id="tspan5965-8">GAMING </tspan><tspan
           sodipodi:role="line"
           x="77.075287"
           y="83.844528"
           style="font-style:normal;font-variant:normal;font-weight:normal;font-stretch:normal;font-size:19.47846031px;line-height:1;font-family:'8BIT WONDER';-inkscape-font-specification:'8BIT WONDER, Normal';font-variant-ligatures:normal;font-variant-caps:normal;font-variant-numeric:normal;font-feature-settings:normal;text-align:start;writing-mode:lr-tb;text-anchor:start;fill:#ff00cc;fill-opacity:1;stroke-width:0.48391798"
           id="tspan5967-3">CLUB</tspan></text>
      <text
         xml:space="preserve"
         style="font-style:normal;font-variant:normal;font-weight:normal;font-stretch:normal;font-size:19.47846031px;line-height:1;font-family:'8BIT WONDER';-inkscape-font-specification:'8BIT WONDER, Normal';font-variant-ligatures:normal;font-variant-caps:normal;font-variant-numeric:normal;font-feature-settings:normal;text-align:start;letter-spacing:0px;word-spacing:0px;writing-mode:lr-tb;text-anchor:start;opacity:1;fill:#00ffff;fill-opacity:1;stroke:none;stroke-width:0.48391798"
         x="76.115425"
         y="45.902325"
         id="text6039-8"><tspan
           sodipodi:role="line"
           id="tspan6033-1"
           x="76.115425"
           y="45.902325"
           style="font-style:normal;font-variant:normal;font-weight:normal;font-stretch:normal;font-size:19.47846031px;line-height:1;font-family:'8BIT WONDER';-inkscape-font-specification:'8BIT WONDER, Normal';font-variant-ligatures:normal;font-variant-caps:normal;font-variant-numeric:normal;font-feature-settings:normal;text-align:start;writing-mode:lr-tb;text-anchor:start;fill:#00ffff;stroke-width:0.48391798">VIDEO</tspan><tspan
           sodipodi:role="line"
           x="76.115425"
           y="65.380783"
           style="font-style:normal;font-variant:normal;font-weight:normal;font-stretch:normal;font-size:19.47846031px;line-height:1;font-family:'8BIT WONDER';-inkscape-font-specification:'8BIT WONDER, Normal';font-variant-ligatures:normal;font-variant-caps:normal;font-variant-numeric:normal;font-feature-settings:normal;text-align:start;writing-mode:lr-tb;text-anchor:start;fill:#00ffff;stroke-width:0.48391798"
           id="tspan6035-9">GAMING </tspan><tspan
           sodipodi:role="line"
           x="76.115425"
           y="84.859245"
           style="font-style:normal;font-variant:normal;font-weight:normal;font-stretch:normal;font-size:19.47846031px;line-height:1;font-family:'8BIT WONDER';-inkscape-font-specification:'8BIT WONDER, Normal';font-variant-ligatures:normal;font-variant-caps:normal;font-variant-numeric:normal;font-feature-settings:normal;text-align:start;writing-mode:lr-tb;text-anchor:start;fill:#00ffff;stroke-width:0.48391798"
           id="tspan6037-6">CLUB</tspan></text>
      <text
         id="text875-2"
         y="45.353825"
         x="76.66394"
         style="font-style:normal;font-variant:normal;font-weight:normal;font-stretch:normal;font-size:19.47846031px;line-height:1;font-family:'8BIT WONDER';-inkscape-font-specification:'8BIT WONDER, Normal';font-variant-ligatures:normal;font-variant-caps:normal;font-variant-numeric:normal;font-feature-settings:normal;text-align:start;letter-spacing:0px;word-spacing:0px;writing-mode:lr-tb;text-anchor:start;opacity:1;fill:#ffffff;fill-opacity:1;stroke:none;stroke-width:0.48391798"
         xml:space="preserve"><tspan
           style="font-style:normal;font-variant:normal;font-weight:normal;font-stretch:normal;font-size:19.47846031px;line-height:1;font-family:'8BIT WONDER';-inkscape-font-specification:'8BIT WONDER, Normal';font-variant-ligatures:normal;font-variant-caps:normal;font-variant-numeric:normal;font-feature-settings:normal;text-align:start;writing-mode:lr-tb;text-anchor:start;fill:#ffffff;stroke-width:0.48391798"
           y="45.353825"
           x="76.66394"
           id="tspan873-8"
           sodipodi:role="line">VIDEO</tspan><tspan
           id="tspan882-5"
           style="font-style:normal;font-variant:normal;font-weight:normal;font-stretch:normal;font-size:19.47846031px;line-height:1;font-family:'8BIT WONDER';-inkscape-font-specification:'8BIT WONDER, Normal';font-variant-ligatures:normal;font-variant-caps:normal;font-variant-numeric:normal;font-feature-settings:normal;text-align:start;writing-mode:lr-tb;text-anchor:start;fill:#ffffff;stroke-width:0.48391798"
           y="64.832283"
           x="76.66394"
           sodipodi:role="line">GAMING </tspan><tspan
           id="tspan884-9"
           style="font-style:normal;font-variant:normal;font-weight:normal;font-stretch:normal;font-size:19.47846031px;line-height:1;font-family:'8BIT WONDER';-inkscape-font-specification:'8BIT WONDER, Normal';font-variant-ligatures:normal;font-variant-caps:normal;font-variant-numeric:normal;font-feature-settings:normal;text-align:start;writing-mode:lr-tb;text-anchor:start;fill:#ffffff;stroke-width:0.48391798"
           y="84.310745"
           x="76.66394"
           sodipodi:role="line">CLUB</tspan></text>
    </g>
  </g>
</svg>
